<?xml version="1.0" encoding="UTF-8"?>
<svg width="26px" height="26px" viewBox="0 0 26 26" version="1.1" xmlns="http://www.w3.org/2000/svg" xmlns:xlink="http://www.w3.org/1999/xlink">
    <!-- Generator: Sketch 57.1 (83088) - https://sketch.com -->
    <title>User/26x26/addtocartWhite2</title>
    <desc>Created with Sketch.</desc>
    <defs>
        <path d="M0.951,0.815 C0.951,1.219 1.235,1.547 1.584,1.547 L1.584,1.547 C1.934,1.547 2.218,1.219 2.218,0.815 L2.218,0.815 C2.218,0.41 1.934,0.082 1.584,0.082 L1.584,0.082 C1.235,0.082 0.951,0.41 0.951,0.815 L0.951,0.815 Z" id="path-1"></path>
        <path d="M0.548,0.815 C0.548,1.219 0.832,1.547 1.182,1.547 L1.182,1.547 C1.531,1.547 1.815,1.219 1.815,0.815 L1.815,0.815 C1.815,0.41 1.531,0.082 1.182,0.082 L1.182,0.082 C0.832,0.082 0.548,0.41 0.548,0.815 L0.548,0.815 Z" id="path-3"></path>
        <path d="M0.548,0.815 C0.548,1.219 0.832,1.547 1.182,1.547 L1.182,1.547 C1.531,1.547 1.815,1.219 1.815,0.815 L1.815,0.815 C1.815,0.409 1.531,0.082 1.182,0.082 L1.182,0.082 C0.832,0.082 0.548,0.409 0.548,0.815 L0.548,0.815 Z" id="path-5"></path>
        <path d="M0.422,7.047 C0.422,10.637 3.332,13.547 6.922,13.547 L6.922,13.547 C10.512,13.547 13.422,10.637 13.422,7.047 L13.422,7.047 C13.422,3.457 10.512,0.547 6.922,0.547 L6.922,0.547 C3.332,0.547 0.422,3.457 0.422,7.047 L0.422,7.047 Z" id="path-7"></path>
        <path d="M2.727,0.742 L2.727,2.852 L0.617,2.852 C0.509,2.852 0.422,2.939 0.422,3.047 L0.422,3.047 C0.422,3.155 0.509,3.243 0.617,3.243 L0.617,3.243 L2.727,3.243 L2.727,5.353 C2.727,5.46 2.813,5.547 2.922,5.547 L2.922,5.547 C3.029,5.547 3.117,5.46 3.117,5.353 L3.117,5.353 L3.117,3.243 L5.228,3.243 C5.335,3.243 5.422,3.155 5.422,3.047 L5.422,3.047 C5.422,2.939 5.335,2.852 5.228,2.852 L5.228,2.852 L3.117,2.852 L3.117,0.742 C3.117,0.635 3.029,0.547 2.922,0.547 L2.922,0.547 C2.813,0.547 2.727,0.635 2.727,0.742 L2.727,0.742 Z" id="path-9"></path>
    </defs>
    <g id="User/26x26/addtocartWhite2" stroke="none" stroke-width="1" fill="none" fill-rule="evenodd">
        <g id="Group-25">
            <path d="M12.4224,8.7192 L4.7614,8.7192" id="Stroke-1" stroke="#FFFFFF"></path>
            <polyline id="Stroke-2" stroke="#FFFFFF" points="0.2202 3.4648 3.4302 3.4648 7.6442 21.0808 18.8832 21.0808 20.4962 14.2868"></polyline>
            <g id="Group-5" transform="translate(8.000000, 23.940000)">
                <mask id="mask-2" fill="white">
                    <use xlink:href="#path-1"></use>
                </mask>
                <g id="Clip-4"></g>
                <polygon id="Fill-3" fill="#FFFFFF" mask="url(#mask-2)" points="-4.048 6.547 7.219 6.547 7.219 -4.919 -4.048 -4.919"></polygon>
            </g>
            <path d="M9.5845,25.4872 C9.9345,25.4872 10.2185,25.1592 10.2185,24.7542 C10.2185,24.3492 9.9345,24.0212 9.5845,24.0212 C9.2345,24.0212 8.9515,24.3492 8.9515,24.7542 C8.9515,25.1592 9.2345,25.4872 9.5845,25.4872 Z" id="Stroke-6" stroke="#FFFFFF" stroke-width="1.001"></path>
            <g id="Group-11" transform="translate(16.000000, 23.940000)">
                <mask id="mask-4" fill="white">
                    <use xlink:href="#path-3"></use>
                </mask>
                <g id="Clip-9"></g>
                <polygon id="Fill-8" fill="#FFFFFF" mask="url(#mask-4)" points="-4.452 6.547 6.815 6.547 6.815 -4.919 -4.452 -4.919"></polygon>
                <polygon id="Stroke-10" stroke="#FFFFFF" stroke-width="1.001" mask="url(#mask-4)" points="-4.452 6.547 6.815 6.547 6.815 -4.919 -4.452 -4.919"></polygon>
            </g>
            <g id="Group-14" transform="translate(16.000000, 23.940000)">
                <mask id="mask-6" fill="white">
                    <use xlink:href="#path-5"></use>
                </mask>
                <g id="Clip-13"></g>
                <polygon id="Stroke-12" stroke="#FFFFFF" stroke-width="1.001" mask="url(#mask-6)" points="-2468.5 1508.5 1159.385 1508.5 1159.385 -413.439 -2468.5 -413.439"></polygon>
            </g>
            <path d="M17.1821,25.4872 C17.5321,25.4872 17.8151,25.1592 17.8151,24.7542 C17.8151,24.3492 17.5321,24.0212 17.1821,24.0212 C16.8321,24.0212 16.5481,24.3492 16.5481,24.7542 C16.5481,25.1592 16.8321,25.4872 17.1821,25.4872 Z" id="Stroke-15" stroke="#FFFFFF" stroke-width="1.001"></path>
            <g id="Group-19" transform="translate(12.000000, 0.940000)">
                <mask id="mask-8" fill="white">
                    <use xlink:href="#path-7"></use>
                </mask>
                <g id="Clip-18"></g>
                <path d="M6.9224,13.5472 C10.5124,13.5472 13.4224,10.6372 13.4224,7.0472 C13.4224,3.4572 10.5124,0.5472 6.9224,0.5472 C3.3324,0.5472 0.4224,3.4572 0.4224,7.0472 C0.4224,10.6372 3.3324,13.5472 6.9224,13.5472 Z" id="Stroke-17" stroke="#FFFFFF" stroke-width="1.6" mask="url(#mask-8)"></path>
            </g>
            <g id="Group-22" transform="translate(16.000000, 4.940000)">
                <mask id="mask-10" fill="white">
                    <use xlink:href="#path-9"></use>
                </mask>
                <g id="Clip-21"></g>
                <polygon id="Fill-20" fill="#FFFFFF" mask="url(#mask-10)" points="-4.578 10.547 10.422 10.547 10.422 -4.453 -4.578 -4.453"></polygon>
            </g>
            <path d="M21.2271,7.7919 L19.1181,7.7919 L19.1181,5.6829 C19.1181,5.5749 19.0301,5.4869 18.9221,5.4869 C18.8141,5.4869 18.7271,5.5749 18.7271,5.6829 L18.7271,7.7919 L16.6181,7.7919 C16.5091,7.7919 16.4221,7.8789 16.4221,7.9869 C16.4221,8.0949 16.5091,8.1829 16.6181,8.1829 L18.7271,8.1829 L18.7271,10.2919 C18.7271,10.3999 18.8141,10.4869 18.9221,10.4869 C19.0301,10.4869 19.1181,10.3999 19.1181,10.2919 L19.1181,8.1829 L21.2271,8.1829 C21.3341,8.1829 21.4221,8.0949 21.4221,7.9869 C21.4221,7.8789 21.3341,7.7919 21.2271,7.7919 Z" id="Stroke-23" stroke="#FFFFFF" stroke-width="0.5"></path>
        </g>
    </g>
</svg>