<?xml version="1.0" encoding="UTF-8"?>
<svg width="7px" height="12px" viewBox="0 0 7 12" version="1.1" xmlns="http://www.w3.org/2000/svg" xmlns:xlink="http://www.w3.org/1999/xlink">
    <!-- Generator: Sketch 57.1 (83088) - https://sketch.com -->
    <title>Arrowright/7x12/dark</title>
    <desc>Created with Sketch.</desc>
    <g id="Arrowright/7x12/dark" stroke="none" stroke-width="1" fill="none" fill-rule="evenodd">
        <path d="M0.594129609,12 C0.436295689,12.0006917 0.284818042,11.9418159 0.173908243,11.8366637 C-0.0579694142,11.6192731 -0.0579694142,11.2670999 0.173908243,11.0497092 L5.56542766,6.00132212 L0.173908243,0.952934998 C-0.0579694142,0.735544361 -0.0579694142,0.383371172 0.173908243,0.165980535 C0.284345427,0.0598546899 0.435882591,0 0.594129609,0 C0.752376627,0 0.903913791,0.0598546899 1.01435098,0.165980535 L6.82609176,5.60784488 C7.05796941,5.82523552 7.05796941,6.17740871 6.82609176,6.39479935 L1.01435098,11.8366637 C0.903441176,11.9418159 0.751963529,12.0006917 0.594129609,12 L0.594129609,12 Z" id="Arrowright/12x20/dark" fill="#484848" fill-rule="nonzero" transform="translate(3.500000, 6.000000) scale(-1, 1) rotate(-180.000000) translate(-3.500000, -6.000000) "></path>
    </g>
</svg>