<?xml version="1.0" encoding="UTF-8"?>
<svg width="20px" height="20px" viewBox="0 0 20 20" version="1.1" xmlns="http://www.w3.org/2000/svg" xmlns:xlink="http://www.w3.org/1999/xlink">
    <!-- Generator: Sketch 57.1 (83088) - https://sketch.com -->
    <title>Move/20x20/ultradark</title>
    <desc>Created with Sketch.</desc>
    <g id="Move/20x20/ultradark" stroke="none" stroke-width="1" fill="none" fill-rule="evenodd">
        <g fill="#000000" fill-rule="nonzero" id="Path">
            <path d="M19.8286144,9.58582209 L17.2124847,6.96973669 C16.9836856,6.74090246 16.6126538,6.74090246 16.3838157,6.96973669 C16.1549776,7.19857091 16.1549776,7.56955737 16.3838157,7.7983916 L17.9997456,9.41429408 L10.5858674,9.41429408 L10.5858674,2.00058071 L12.2017973,3.61648318 C12.4305964,3.84531741 12.8016672,3.84531741 13.0304663,3.61648318 C13.2593044,3.38764895 13.2593044,3.0166625 13.0304663,2.78782827 L10.4142584,0.171625672 C10.1854594,-0.0572085572 9.81442754,-0.0572085572 9.58558943,0.171625672 L6.96934249,2.78782827 C6.74050438,3.0166625 6.74050438,3.38764895 6.96934249,3.61648318 C7.19814153,3.84531741 7.56917334,3.84531741 7.79801145,3.61648318 L9.41394132,2.00058071 L9.41394132,9.41429408 L2.00006321,9.41429408 L3.61599308,7.7983916 C3.84483118,7.56955737 3.84483118,7.19857091 3.61599308,6.96973669 C3.38719403,6.74090246 3.01616222,6.74090246 2.78732411,6.96973669 L0.171194362,9.58582209 C0.157482826,9.59949433 0.144552575,9.61390878 0.132247351,9.62890918 C-0.059206314,9.86184508 -0.0398304688,10.2037683 0.171194362,10.4146723 L2.78732411,13.0307577 C3.01612316,13.259592 3.38719403,13.259592 3.61599308,13.0307577 C3.84483118,12.8019235 3.84483118,12.430937 3.61599308,12.2021028 L2.00006321,10.5862003 L9.41394132,10.5862003 L9.41394132,17.9999528 L7.79801145,16.3840503 C7.56921241,16.1552161 7.1981806,16.1552161 6.96934249,16.3840503 C6.74050438,16.6128845 6.74050438,16.983871 6.96934249,17.2127052 L9.58547224,19.8287906 C9.81036487,20.0538357 10.1829983,20.0602812 10.4143365,19.8287906 L13.0304663,17.2127052 C13.2593044,16.983871 13.2593044,16.6128845 13.0304663,16.3840503 C12.8016672,16.1552161 12.4306354,16.1552161 12.2017973,16.3840503 L10.5858674,17.9999528 L10.5858674,10.5862003 L17.9997456,10.5862003 L16.3838157,12.2021028 C16.1549776,12.430937 16.1549776,12.8019235 16.3838157,13.0307577 C16.6126147,13.259592 16.9836856,13.259592 17.2124847,13.0307577 L19.8286144,10.4146723 C20.0544055,10.1890804 20.0598354,9.81688294 19.8286144,9.58582209 Z"></path>
        </g>
    </g>
</svg>