<?xml version="1.0" encoding="UTF-8"?>
<svg width="50px" height="50px" viewBox="0 0 50 50" version="1.1" xmlns="http://www.w3.org/2000/svg" xmlns:xlink="http://www.w3.org/1999/xlink">
    <!-- Generator: Sketch 57.1 (83088) - https://sketch.com -->
    <title>Icon button/40px/proof</title>
    <desc>Created with Sketch.</desc>
    <defs>
        <circle id="path-1" cx="20" cy="20" r="20"></circle>
        <filter x="-21.9%" y="-16.9%" width="143.7%" height="143.8%" filterUnits="objectBoundingBox" id="filter-2">
            <feMorphology radius="0.25" operator="dilate" in="SourceAlpha" result="shadowSpreadOuter1"></feMorphology>
            <feOffset dx="0" dy="2" in="shadowSpreadOuter1" result="shadowOffsetOuter1"></feOffset>
            <feGaussianBlur stdDeviation="2.5" in="shadowOffsetOuter1" result="shadowBlurOuter1"></feGaussianBlur>
            <feComposite in="shadowBlurOuter1" in2="SourceAlpha" operator="out" result="shadowBlurOuter1"></feComposite>
            <feColorMatrix values="0 0 0 0 0   0 0 0 0 0   0 0 0 0 0  0 0 0 0.15 0" type="matrix" in="shadowBlurOuter1"></feColorMatrix>
        </filter>
    </defs>
    <g id="Symbols" stroke="none" stroke-width="1" fill="none" fill-rule="evenodd">
        <g id="Icon-button/40px/proof" transform="translate(5.000000, 3.000000)">
            <g>
                <g id="Group-6">
                    <g id="Icon-button/45px/delete">
                        <g transform="translate(0.000000, 0.000000)" id="Oval-44">
                            <g>
                                <use fill="black" fill-opacity="1" filter="url(#filter-2)" xlink:href="#path-1"></use>
                                <use stroke="#D6D6D6" stroke-width="0.5" fill="#20A8CE" fill-rule="evenodd" xlink:href="#path-1"></use>
                            </g>
                        </g>
                    </g>
                </g>
                <g id="Proof/16x16/ultra-dark" transform="translate(11.000000, 10.000000)">
                    <g id="Group" transform="translate(0.850000, 0.000000)">
                        <g id="Group-6">
                            <g id="document" transform="translate(2.318182, 7.407407)" fill="#FFFFFF" fill-rule="nonzero">
                                <path d="M3.79980237,0.721417069 L0.433399209,0.721417069 C0.231818182,0.721417069 0.0503952569,0.876006441 0.0503952569,1.08856683 C0.0503952569,1.28180354 0.211660079,1.45571659 0.433399209,1.45571659 L3.79980237,1.45571659 C4.0013834,1.45571659 4.18280632,1.30112721 4.18280632,1.08856683 C4.18280632,0.895330113 4.0013834,0.721417069 3.79980237,0.721417069 Z" id="Path"></path>
                            </g>
                            <path d="M6.45012421,17.7777778 L1.23453284,17.7777778 C0.552722101,17.7777778 0,17.2530412 0,16.605752 L0,1.17202573 C0,0.524736568 0.552722101,0 1.23453284,0 L13.4473146,0 C14.1290961,0 14.6818182,0.524736568 14.6818182,1.17202573 L14.6818182,10.5812554" id="Stroke-1" stroke="#FFFFFF" stroke-linecap="round"></path>
                            <path d="M2.31818182,4.07407407 C2.31818182,4.26900585 2.48422239,4.44444444 2.71252817,4.44444444 L11.96929,4.44444444 C12.1768407,4.44444444 12.3636364,4.28849903 12.3636364,4.07407407 C12.3636364,3.8791423 12.1975958,3.7037037 11.96929,3.7037037 L2.71252817,3.7037037 C2.50497746,3.7037037 2.31818182,3.85964912 2.31818182,4.07407407 Z" id="Path" fill="#FFFFFF" fill-rule="nonzero"></path>
                            <path d="M11.96929,5.92592593 L2.71252817,5.92592593 C2.50497746,5.92592593 2.31818182,6.08187135 2.31818182,6.2962963 C2.31818182,6.49122807 2.48422239,6.66666667 2.71252817,6.66666667 L11.96929,6.66666667 C12.1768407,6.66666667 12.3636364,6.51072125 12.3636364,6.2962963 C12.3636364,6.08187135 12.1975958,5.92592593 11.96929,5.92592593 Z" id="Path" fill="#FFFFFF" fill-rule="nonzero"></path>
                        </g>
                    </g>
                </g>
                <g id="confirm-(3)" transform="translate(19.000000, 20.000000)" fill="#FFFFFF" fill-rule="nonzero" stroke="#FFFFFF" stroke-width="0.5">
                    <path d="M6,0 C2.68630417,0 0,2.68630417 0,6 C0.00285607097,9.31253404 2.68746596,11.9971681 6,12 C9.31372003,12 12,9.31369583 12,6 C12,2.68630417 9.31372003,0 6,0 Z M6,11.4836563 C2.97145139,11.4836563 0.516343745,9.02854861 0.516343745,6 C0.519199816,2.97263739 2.97263739,0.519199816 6,0.516343745 C9.02854861,0.516343745 11.4836563,2.97145139 11.4836563,6 C11.4836563,9.02854861 9.02854861,11.4836563 6,11.4836563 Z" id="Shape"></path>
                    <polygon id="Path" points="9.25 4.46958705 8.81664019 4 5.09349952 8.04101562 3.4333312 6.24206349 3 6.71165055 4.66013971 8.51060268 4.64182913 8.53044395 5.07518894 9 5.09349952 8.97355531 5.11181009 9 5.5390473 8.53044395 5.52073673 8.51060268"></polygon>
                </g>
            </g>
        </g>
    </g>
</svg>